# xmcd CD database file
#
# Track frame offsets:
#	150
#	18624
#	32046
#	47030
#	65539
#	75418
#	85751
#	98459
#	117509
#	131952
#	144967
#	157238
#	168910
#	182167
#	195863
#	205210
#	215800
#	228100
#	239996
#
# Disc length: 3379 seconds
#
# Revision: 0
# Processed by: cddbd v1.5.2PL0 Copyright (c) Steve Scherf et al.
# Submitted via: CDex 1.70beta2
#
DISCID=0a0d3113
DTITLE=Shannon Vegvary - Sweet Dreams
DYEAR=2004
DGENRE=Country
TTITLE0=Hello
TTITLE1=Don´t It Make My Brown Eyes Blue
TTITLE2=Dixi Down
TTITLE3=Whose Bed Have Your Boots Been Under
TTITLE4=Stupid Cupid
TTITLE5=Runaway
TTITLE6=Sweet Dreams
TTITLE7=The Woman In Me
TTITLE8=Blue Kentucky Girl
TTITLE9=Rose Garden
TTITLE10=These Boots Were Made For Walking
TTITLE11=I´m Sorry
TTITLE12=Just Annother Woman In Love
TTITLE13=No One Needs To Know
TTITLE14=Sei Nicht So Kühl
TTITLE15=Sweet Nothing´s
TTITLE16=Crazy
TTITLE17=Stand By Your Man
TTITLE18=Annie´s Song
EXTD=YEAR: 2004
EXTT0=
EXTT1=
EXTT2=
EXTT3=
EXTT4=
EXTT5=
EXTT6=
EXTT7=
EXTT8=
EXTT9=
EXTT10=
EXTT11=
EXTT12=
EXTT13=
EXTT14=
EXTT15=
EXTT16=
EXTT17=
EXTT18=
PLAYORDER=
